<svg width="19" height="19" viewBox="0 0 25 25" fill="currentColor" xmlns="http://www.w3.org/2000/svg">
<path d="M24.7704 20.0832L17.1864 12.4992L24.7704 4.91517C24.9157 4.76807 24.9972 4.56963 24.9972 4.36286C24.9972 4.15608 24.9157 3.95764 24.7704 3.81054L21.1878 0.227904C21.0413 0.0814496 20.8426 -0.000823975 20.6355 -0.000823975C20.4283 -0.000823975 20.2296 0.0814496 20.0831 0.227904L12.4991 7.81191L4.91514 0.227904C4.76864 0.0814496 4.56998 -0.000823975 4.36283 -0.000823975C4.15568 -0.000823975 3.95701 0.0814496 3.81051 0.227904L0.227874 3.81054C0.0814191 3.95704 -0.000854492 4.15571 -0.000854492 4.36286C-0.000854492 4.57001 0.0814191 4.76867 0.227874 4.91517L7.81188 12.4992L0.227874 20.0832C0.0814191 20.2297 -0.000854492 20.4283 -0.000854492 20.6355C-0.000854492 20.8426 0.0814191 21.0413 0.227874 21.1878L3.81051 24.7704C3.95701 24.9169 4.15568 24.9992 4.36283 24.9992C4.56998 24.9992 4.76864 24.9169 4.91514 24.7704L12.4991 17.1864L20.0831 24.7704C20.2296 24.9169 20.4283 24.9992 20.6355 24.9992C20.8426 24.9992 21.0413 24.9169 21.1878 24.7704L24.7704 21.1878C24.9169 21.0413 24.9991 20.8426 24.9991 20.6355C24.9991 20.4283 24.9169 20.2297 24.7704 20.0832Z" />
</svg>
