<svg width="22" height="22" viewBox="0 0 24 24" fill="none" xmlns="http://www.w3.org/2000/svg">
<path d="M15 19.88C15.04 20.18 14.94 20.5 14.71 20.71C14.6175 20.8027 14.5076 20.8762 14.3866 20.9264C14.2657 20.9766 14.136 21.0024 14.005 21.0024C13.874 21.0024 13.7444 20.9766 13.6234 20.9264C13.5024 20.8762 13.3925 20.8027 13.3 20.71L9.29 16.7C9.181 16.5933 9.09811 16.4629 9.04781 16.319C8.99751 16.175 8.98114 16.0213 9 15.87V10.75L4.21 4.62C4.04761 4.41153 3.97434 4.14726 4.00619 3.88493C4.03804 3.6226 4.17244 3.38355 4.38 3.22C4.57 3.08 4.78 3 5 3H19C19.22 3 19.43 3.08 19.62 3.22C19.8276 3.38355 19.962 3.6226 19.9938 3.88493C20.0257 4.14726 19.9524 4.41153 19.79 4.62L15 10.75V19.88ZM7.04 5L11 10.06V15.58L13 17.58V10.05L16.96 5H7.04Z" fill="#302F2F"/>
</svg>
