<svg width="19" height="19" viewBox="0 0 19 19" fill="none" xmlns="http://www.w3.org/2000/svg">
<path d="M4.35417 3.1651C4.35417 3.1651 4.95821 2.26181 5.35959 2.3861C5.54167 2.44231 5.54167 2.67031 5.54167 3.12473V7.91669H6.72917M5.54167 7.9151H4.35417M7.125 13.8542V12.4688C7.125 11.8149 7.125 11.4887 6.89304 11.2852C6.66109 11.0834 6.28821 11.0834 5.54167 11.0834C4.79513 11.0834 4.42225 11.0834 4.19029 11.286C3.95834 11.4887 3.95834 11.8156 3.95834 12.4688C3.95834 13.1219 3.95834 13.4489 4.19029 13.6515C4.42225 13.8542 4.79513 13.8542 5.54167 13.8542H7.125ZM7.125 13.8542V14.5461C7.125 15.5262 7.125 16.0154 6.77667 16.3194C6.42992 16.625 5.87021 16.625 4.75 16.625H3.95834M13.0625 15.8334V3.16669M13.0625 15.8334C12.5083 15.8334 11.4728 14.254 11.0833 13.8542M13.0625 15.8334C13.6167 15.8334 14.653 14.254 15.0417 13.8542" stroke="#302F2F" stroke-width="1.1875" stroke-linecap="round" stroke-linejoin="round"/>
</svg>
