<svg width="24" height="24" viewBox="0 0 24 24" fill="none" xmlns="http://www.w3.org/2000/svg">
<path d="M13.4702 7.53001C13.6108 7.67046 13.8014 7.74935 14.0002 7.74935C14.1989 7.74935 14.3895 7.67046 14.5302 7.53001L15.2502 6.81001V17C15.2502 17.1989 15.3292 17.3897 15.4698 17.5303C15.6105 17.671 15.8012 17.75 16.0002 17.75C16.1991 17.75 16.3898 17.671 16.5305 17.5303C16.6711 17.3897 16.7502 17.1989 16.7502 17V6.81001L17.4702 7.53001C17.5388 7.6037 17.6216 7.6628 17.7136 7.70379C17.8056 7.74478 17.9049 7.76683 18.0056 7.7686C18.1063 7.77038 18.2064 7.75186 18.2998 7.71413C18.3931 7.67641 18.478 7.62027 18.5492 7.54905C18.6204 7.47783 18.6766 7.393 18.7143 7.29961C18.752 7.20622 18.7705 7.10619 18.7687 7.00549C18.767 6.90479 18.7449 6.80547 18.7039 6.71347C18.6629 6.62147 18.6038 6.53867 18.5302 6.47001L16.5302 4.47001C16.3895 4.32956 16.1989 4.25067 16.0002 4.25067C15.8014 4.25067 15.6108 4.32956 15.4702 4.47001L13.4702 6.47001C13.3297 6.61064 13.2508 6.80126 13.2508 7.00001C13.2508 7.19876 13.3297 7.38939 13.4702 7.53001ZM8.75015 17.19L9.47015 16.47C9.53882 16.3963 9.62162 16.3372 9.71362 16.2962C9.80561 16.2552 9.90493 16.2332 10.0056 16.2314C10.1063 16.2296 10.2064 16.2482 10.2998 16.2859C10.3931 16.3236 10.478 16.3798 10.5492 16.451C10.6204 16.5222 10.6766 16.607 10.7143 16.7004C10.752 16.7938 10.7705 16.8938 10.7687 16.9945C10.767 17.0952 10.7449 17.1946 10.7039 17.2866C10.6629 17.3785 10.6038 17.4614 10.5302 17.53L8.53015 19.53C8.38953 19.6705 8.1989 19.7494 8.00015 19.7494C7.8014 19.7494 7.61078 19.6705 7.47015 19.53L5.47015 17.53C5.39647 17.4614 5.33736 17.3785 5.29637 17.2866C5.25538 17.1946 5.23334 17.0952 5.23156 16.9945C5.22979 16.8938 5.24831 16.7938 5.28603 16.7004C5.32375 16.607 5.3799 16.5222 5.45112 16.451C5.52233 16.3798 5.60717 16.3236 5.70056 16.2859C5.79394 16.2482 5.89397 16.2296 5.99468 16.2314C6.09538 16.2332 6.19469 16.2552 6.28669 16.2962C6.37869 16.3372 6.46149 16.3963 6.53015 16.47L7.25015 17.19V7.00001C7.25015 6.8011 7.32917 6.61033 7.46982 6.46968C7.61048 6.32903 7.80124 6.25001 8.00015 6.25001C8.19907 6.25001 8.38983 6.32903 8.53048 6.46968C8.67114 6.61033 8.75015 6.8011 8.75015 7.00001V17.19Z" fill="#302F2F"/>
</svg>
