<svg width="24" height="24" viewBox="0 0 24 24" fill="none" xmlns="http://www.w3.org/2000/svg">
<path d="M7 21V14.948C7 14.374 7 14.086 6.77 14.015C6.263 13.858 5.5 14.999 5.5 14.999M7 21L5.5 20.999M7 21H8.5M9 6.5V4.75C9 3.925 9 3.513 8.707 3.256C8.414 2.999 7.943 3 7 3C6.057 3 5.586 3 5.293 3.256C5 3.513 5 3.925 5 4.75C5 5.575 5 5.987 5.293 6.244C5.586 6.501 6.057 6.5 7 6.5H9ZM9 6.5V7.375C9 8.612 9 9.231 8.56 9.615C8.122 10 7.415 10 6 10H5M16.5 19.999V3.999M16.5 19.999C15.8 19.999 14.492 18.005 14 17.499M16.5 19.999C17.2 19.999 18.509 18.005 19 17.499" stroke="black" stroke-width="1.5" stroke-linecap="round" stroke-linejoin="round"/>
</svg>
