<svg width="172" height="43" viewBox="0 0 172 43" fill="none" xmlns="http://www.w3.org/2000/svg">
<path d="M67.0178 14.3585V28.6988H65.1321V18.0058L60.3658 28.6988H59.0395L54.2525 17.9851V28.6988H52.3668V14.3585H54.3976L59.7027 26.212L65.0077 14.3585H67.0178ZM79.9972 17.3426L73.1586 34.0453H71.2107L73.4487 28.5745L68.869 17.3426H70.962L74.5263 26.5436L78.0492 17.3426H79.9972ZM91.5497 18.4824C91.5497 19.6843 91.1352 20.6859 90.3063 21.4872C89.4912 22.2747 88.2409 22.6684 86.5555 22.6684H83.7786V28.6988H81.8928V14.2549H86.5555C88.1857 14.2549 89.4221 14.6487 90.2649 15.4361C91.1214 16.2236 91.5497 17.239 91.5497 18.4824ZM86.5555 21.1142C87.6054 21.1142 88.3791 20.8863 88.8764 20.4304C89.3738 19.9745 89.6225 19.3251 89.6225 18.4824C89.6225 16.7002 88.6001 15.8092 86.5555 15.8092H83.7786V21.1142H86.5555ZM95.7793 19.187C96.1108 18.5377 96.5806 18.0334 97.1884 17.6742C97.8101 17.315 98.563 17.1354 99.4472 17.1354V19.0834H98.9499C96.8361 19.0834 95.7793 20.23 95.7793 22.5234V28.6988H93.8935V17.3426H95.7793V19.187ZM106.577 28.8853C105.513 28.8853 104.546 28.6435 103.676 28.16C102.819 27.6765 102.142 26.9926 101.645 26.1084C101.161 25.2104 100.92 24.1743 100.92 23C100.92 21.8395 101.168 20.8172 101.666 19.933C102.177 19.035 102.867 18.3512 103.738 17.8814C104.608 17.3979 105.582 17.1561 106.66 17.1561C107.737 17.1561 108.711 17.3979 109.582 17.8814C110.452 18.3512 111.136 19.0281 111.633 19.9123C112.144 20.7965 112.4 21.8257 112.4 23C112.4 24.1743 112.138 25.2104 111.613 26.1084C111.101 26.9926 110.404 27.6765 109.52 28.16C108.635 28.6435 107.654 28.8853 106.577 28.8853ZM106.577 27.2275C107.254 27.2275 107.889 27.0686 108.483 26.7508C109.077 26.4331 109.554 25.9565 109.913 25.321C110.286 24.6855 110.473 23.9118 110.473 23C110.473 22.0882 110.293 21.3145 109.934 20.679C109.575 20.0435 109.105 19.5738 108.525 19.2699C107.945 18.9521 107.316 18.7932 106.639 18.7932C105.948 18.7932 105.313 18.9521 104.733 19.2699C104.166 19.5738 103.71 20.0435 103.365 20.679C103.019 21.3145 102.847 22.0882 102.847 23C102.847 23.9256 103.013 24.7062 103.344 25.3417C103.689 25.9772 104.145 26.4538 104.712 26.7716C105.278 27.0755 105.9 27.2275 106.577 27.2275ZM114.175 22.9793C114.175 21.8188 114.41 20.8034 114.879 19.933C115.349 19.0488 115.992 18.365 116.807 17.8814C117.636 17.3979 118.561 17.1561 119.584 17.1561C120.468 17.1561 121.29 17.3634 122.05 17.7778C122.809 18.1785 123.39 18.7104 123.79 19.3735V13.3639H125.697V28.6988H123.79V26.5643C123.417 27.2413 122.865 27.8008 122.132 28.2429C121.4 28.6712 120.544 28.8853 119.563 28.8853C118.554 28.8853 117.636 28.6366 116.807 28.1393C115.992 27.6419 115.349 26.9443 114.879 26.0463C114.41 25.1483 114.175 24.1259 114.175 22.9793ZM123.79 23C123.79 22.1434 123.618 21.3974 123.272 20.7619C122.927 20.1264 122.457 19.6429 121.863 19.3113C121.283 18.9659 120.64 18.7932 119.936 18.7932C119.231 18.7932 118.589 18.959 118.009 19.2906C117.428 19.6222 116.966 20.1057 116.62 20.7412C116.275 21.3767 116.102 22.1227 116.102 22.9793C116.102 23.8496 116.275 24.6095 116.62 25.2588C116.966 25.8943 117.428 26.3847 118.009 26.7301C118.589 27.0617 119.231 27.2275 119.936 27.2275C120.64 27.2275 121.283 27.0617 121.863 26.7301C122.457 26.3847 122.927 25.8943 123.272 25.2588C123.618 24.6095 123.79 23.8565 123.79 23ZM138.955 17.3426V28.6988H137.069V27.0202C136.71 27.6005 136.206 28.0564 135.556 28.3879C134.921 28.7057 134.216 28.8646 133.443 28.8646C132.558 28.8646 131.764 28.685 131.06 28.3258C130.355 27.9528 129.795 27.4002 129.381 26.6679C128.98 25.9357 128.78 25.0447 128.78 23.9947V17.3426H130.645V23.746C130.645 24.8651 130.928 25.7285 131.495 26.3364C132.061 26.9304 132.835 27.2275 133.816 27.2275C134.824 27.2275 135.619 26.9166 136.199 26.2949C136.779 25.6732 137.069 24.7683 137.069 23.5802V17.3426H138.955ZM141.434 23C141.434 21.8257 141.669 20.8034 142.139 19.933C142.609 19.0488 143.258 18.365 144.087 17.8814C144.93 17.3979 145.89 17.1561 146.967 17.1561C148.363 17.1561 149.509 17.4946 150.407 18.1716C151.319 18.8485 151.92 19.7879 152.21 20.9899H150.179C149.986 20.2991 149.606 19.7534 149.04 19.3528C148.487 18.9521 147.796 18.7518 146.967 18.7518C145.89 18.7518 145.019 19.1248 144.356 19.8708C143.693 20.603 143.362 21.6461 143.362 23C143.362 24.3677 143.693 25.4246 144.356 26.1706C145.019 26.9166 145.89 27.2896 146.967 27.2896C147.796 27.2896 148.487 27.0962 149.04 26.7094C149.592 26.3226 149.972 25.77 150.179 25.0516H152.21C151.906 26.212 151.298 27.1446 150.387 27.8492C149.475 28.5399 148.335 28.8853 146.967 28.8853C145.89 28.8853 144.93 28.6435 144.087 28.16C143.258 27.6765 142.609 26.9926 142.139 26.1084C141.669 25.2243 141.434 24.1881 141.434 23ZM157.027 18.8969V25.5904C157.027 26.143 157.144 26.5367 157.379 26.7716C157.614 26.9926 158.021 27.1031 158.602 27.1031H159.99V28.6988H158.291C157.241 28.6988 156.453 28.457 155.928 27.9735C155.403 27.49 155.141 26.6956 155.141 25.5904V18.8969H153.67V17.3426H155.141V14.4829H157.027V17.3426H159.99V18.8969H157.027ZM166.295 28.8853C165.425 28.8853 164.644 28.7402 163.954 28.4501C163.263 28.1462 162.717 27.7317 162.316 27.2067C161.916 26.6679 161.695 26.0532 161.653 25.3624H163.601C163.657 25.9288 163.919 26.3916 164.389 26.7508C164.872 27.11 165.501 27.2896 166.275 27.2896C166.993 27.2896 167.559 27.1308 167.974 26.813C168.388 26.4953 168.595 26.0946 168.595 25.6111C168.595 25.1137 168.374 24.7476 167.932 24.5128C167.49 24.2641 166.806 24.0223 165.881 23.7875C165.038 23.5664 164.347 23.3454 163.808 23.1243C163.283 22.8895 162.828 22.551 162.441 22.1089C162.068 21.653 161.881 21.059 161.881 20.3267C161.881 19.7465 162.054 19.2146 162.399 18.7311C162.745 18.2475 163.235 17.8676 163.871 17.5913C164.506 17.3012 165.231 17.1561 166.047 17.1561C167.304 17.1561 168.319 17.4739 169.093 18.1094C169.866 18.7449 170.281 19.6153 170.336 20.7205H168.45C168.409 20.1264 168.167 19.6498 167.725 19.2906C167.297 18.9314 166.717 18.7518 165.984 18.7518C165.307 18.7518 164.769 18.8969 164.368 19.187C163.967 19.4771 163.767 19.857 163.767 20.3267C163.767 20.6998 163.884 21.0106 164.119 21.2593C164.368 21.4941 164.672 21.6875 165.031 21.8395C165.404 21.9777 165.915 22.1365 166.565 22.3161C167.38 22.5372 168.043 22.7582 168.554 22.9793C169.065 23.1865 169.5 23.5043 169.86 23.9325C170.233 24.3608 170.426 24.9203 170.44 25.6111C170.44 26.2328 170.267 26.7923 169.922 27.2896C169.576 27.787 169.086 28.1807 168.45 28.4708C167.829 28.7471 167.11 28.8853 166.295 28.8853Z" fill="#E9E9D5"/>
<path d="M19.9633 2.24388C24.5102 1.94517 28.692 3.28933 31.6292 5.13132C34.5996 7.0065 37.0224 9.59524 38.5989 12.6652C40.1422 15.6688 41.3038 19.9668 40.6234 24.7128C40.1754 27.8326 39.047 30.3218 37.5535 32.562C37.0722 33.2756 36.5744 34.2879 35.7612 34.3542C34.9647 34.4206 34.3341 33.9062 34.2346 33.1262C34.1516 32.5288 34.4835 32.1638 34.7988 31.7157C35.6617 30.5707 36.4416 29.0606 36.9395 27.7662C37.653 25.9076 38.2172 23.5512 38.0347 20.8463C37.7028 15.785 35.7446 12.4163 32.99 9.66162C31.6126 8.28428 29.8702 7.17244 28.1278 6.37591C26.2692 5.52959 24.2447 4.99856 21.5066 4.8824C19.0008 4.78284 16.6112 5.41343 14.7194 6.19337C10.9193 7.76985 8.1148 10.5245 6.306 14.0426C5.37671 15.8348 4.69634 17.8593 4.5138 20.3485C4.11553 25.4596 5.89114 29.6414 8.36372 32.5288C10.7865 35.3665 14.1054 37.6731 18.7519 38.3535C23.6307 39.0671 27.3146 37.7727 30.1855 35.9473C30.6501 35.6486 30.9986 35.3333 31.5462 35.3831C32.3096 35.4329 32.8738 35.9141 32.8572 36.7936C32.8406 37.6068 32.127 38.0382 31.5462 38.4199C29.7208 39.5483 27.6465 40.4278 25.3233 40.9091C21.9546 41.6392 17.8392 41.241 15.1177 40.3449C9.52533 38.5029 5.22736 34.5534 3.07007 29.0772C1.94165 26.2229 1.37743 22.5887 1.84208 19.0873C2.29013 15.6854 3.51813 12.9639 5.07801 10.6905C7.38464 7.32179 10.6372 4.56711 15.0347 3.15657C16.495 2.69193 18.3536 2.34344 19.9633 2.24388Z" fill="#E9E9D5"/>
<path d="M30.0526 16.1335C27.1818 17.71 24.1782 19.1537 21.2907 20.697C18.3203 18.8882 15.4163 17.013 12.479 15.171C15.2669 13.6775 18.2041 12.1342 20.992 10.7901C24.0288 12.5325 26.9826 14.3911 30.0526 16.1335Z" fill="#E9E9D5"/>
<path d="M11.3341 16.6977C14.3709 18.4899 17.3911 20.2821 20.3615 22.1241C20.3615 25.6255 20.3615 29.1436 20.3615 32.645C20.1623 32.6948 19.9798 32.5123 19.8305 32.4293C17.0758 30.7698 14.0722 28.9942 11.3341 27.2518C11.3341 23.7504 11.3341 20.2323 11.3341 16.6977Z" fill="#E9E9D5"/>
<path d="M31.0649 28.0981C28.2272 29.6912 25.1075 31.2345 22.2532 32.6616C22.2532 29.127 22.2532 25.5923 22.2532 22.0577C25.1738 20.5642 28.1111 19.0707 31.0151 17.544C31.1147 20.9791 31.0317 24.5967 31.0649 28.0981Z" fill="#E9E9D5"/>
</svg>
